#!OML:ASF X:\für Bonn\!DataBase\2005_08_11_Bastian_Final\c3d\Bastian.ASF
:FULLY-SPECIFIED
:DEGREES
155
root 22.2333 16.4391 -4.94271 550.958 -113.098 -161.531
lowerback 73.1818 -1.61992 10.8763
upperback 17.3677 2.6277 2.05109
thorax -0.66353 0.77064 -2.90253
lowerneck -7.2784 -5.61118 1.3974
upperneck -20.9901 -8.08032 2.26375
head -5.14137 -4.66698 0.696675
rclavicle 8.26944e-014 -3.18055e-015
rhumerus 52.1627 -12.4358 -41.3707
rradius 22.9396
rwrist -12.669
rhand -41.0588 -11.5639
rfingers 7.12502
rthumb -13.9883 -41.0733
lclavicle 8.26944e-014 -3.18055e-015
lhumerus -7.88866 -30.259 86.9622
lradius 53.103
lwrist 33.4568
lhand -13.5073 -16.5567
lfingers 7.12502
lthumb 12.6042 13.043
rfemur -67.7843 -15.0502 22.8579
rtibia 61.8572
rfoot -15.4011 -3.55992
rtoes 5.20316
lfemur -62.2864 -4.91485 -28.6916
ltibia 46.4437
lfoot -3.78924 -6.70467
ltoes -18.483
156
root 22.2275 16.4459 -4.9478 551.107 -113.304 -161.772
lowerback 73.0592 -1.41266 10.7909
upperback 17.4012 2.79057 2.1874
thorax -0.647024 0.821907 -2.78204
lowerneck -7.16218 -5.63956 1.55186
upperneck -21.0399 -8.13373 2.18658
head -5.18572 -4.70024 0.655045
rclavicle 6.04305e-014 4.77083e-015
rhumerus 51.7311 -11.8361 -40.641
rradius 23.2905
rwrist -13.1352
rhand -41.0345 -11.6524
rfingers 7.12502
rthumb -13.9649 -41.1634
lclavicle 6.04305e-014 4.77083e-015
lhumerus -7.88248 -30.3272 87.159
lradius 53.0025
lwrist 33.3431
lhand -13.4724 -16.5643
lfingers 7.12502
lthumb 12.6378 13.0334
rfemur -67.6002 -15.1669 22.9484
rtibia 61.7627
rfoot -15.4142 -3.63247
rtoes 5.21787
lfemur -62.1281 -4.95677 -28.6244
ltibia 46.3317
lfoot -3.72249 -6.84378
ltoes -18.4407
157
root 22.2221 16.4535 -4.95355 551.281 -113.548 -162.055
lowerback 72.9817 -1.23682 10.7163
upperback 17.41 2.941 2.3441
thorax -0.655694 0.862898 -2.63579
lowerneck -7.05767 -5.66621 1.65709
upperneck -21.072 -8.18633 2.09699
head -5.22117 -4.72848 0.616589
rclavicle -9.54166e-015 -2.38542e-014
rhumerus 51.3371 -11.1003 -39.7606
rradius 23.6402
rwrist -13.7151
rhand -40.98 -11.5014
rfingers 7.12502
rthumb -13.9124 -41.0159
lclavicle -9.54166e-015 -2.38542e-014
lhumerus -7.85373 -30.3625 87.3706
lradius 52.8624
lwrist 33.2475
lhand -13.4417 -16.5569
lfingers 7.12502
lthumb 12.6674 13.0389
rfemur -67.4036 -15.2984 23.05
rtibia 61.6712
rfoot -15.446 -3.72318
rtoes 5.25795
lfemur -61.9521 -5.02201 -28.5311
ltibia 46.2175
lfoot -3.65605 -6.97327
ltoes -18.4021
158
root 22.217 16.4599 -4.95983 551.483 -113.782 -162.38
lowerback 72.8996 -1.05887 10.6674
upperback 17.4233 3.10705 2.49564
thorax -0.656934 0.913342 -2.51142
lowerneck -6.94023 -5.7103 1.73128
upperneck -21.1072 -8.25215 2.06237
head -5.25601 -4.76401 0.600991
rclavicle 5.40694e-014 -4.77083e-015
rhumerus 50.9726 -10.4445 -39.0222
rradius 23.9421
rwrist -14.1075
rhand -40.763 -11.1228
rfingers 7.12502
rthumb -13.7033 -40.6517
lclavicle 5.40694e-014 -4.77083e-015
lhumerus -7.84084 -30.4067 87.5903
lradius 52.7447
lwrist 33.122
lhand -13.3975 -16.5208
lfingers 7.12502
lthumb 12.71 13.0724
rfemur -67.1843 -15.4131 23.159
rtibia 61.5848
rfoot -15.4969 -3.79933
rtoes 5.33465
lfemur -61.7779 -5.07687 -28.4252
ltibia 46.1125
lfoot -3.5992 -7.10883
ltoes -18.5584
159
root 22.2112 16.4665 -4.96631 551.547 -113.998 -162.54
lowerback 72.814 -0.869008 10.5733
upperback 17.4428 3.25326 2.61524
thorax -0.655976 0.959202 -2.39922
lowerneck -6.87207 -5.75003 1.85668
upperneck -21.1192 -8.3144 2.02336
head -5.27826 -4.80123 0.573421
rclavicle -3.49861e-014 1.90833e-014
rhumerus 50.6373 -9.74874 -38.2566
rradius 24.2497
rwrist -14.5402
rhand -40.5102 -10.6206
rfingers 7.12502
rthumb -13.4595 -40.1657
lclavicle -3.49861e-014 1.90833e-014
lhumerus -7.78314 -30.536 87.7123
lradius 52.6464
lwrist 33.0853
lhand -13.3761 -16.4665
lfingers 7.12502
lthumb 12.7306 13.1254
rfemur -67.0052 -15.5346 23.2128
rtibia 61.5087
rfoot -15.5141 -3.87812
rtoes 5.38997
lfemur -61.6034 -5.1235 -28.3867
ltibia 45.9993
lfoot -3.55486 -7.25835
ltoes -18.4905
160
root 22.2058 16.4724 -4.97305 551.722 -114.236 -162.829
lowerback 72.7433 -0.685089 10.5046
upperback 17.4494 3.41699 2.77275
thorax -0.668163 1.00644 -2.25961
lowerneck -6.76593 -5.79961 1.88145
upperneck -21.145 -8.37989 2.029
head -5.30453 -4.83514 0.577594
rclavicle 6.36111e-015 -2.70347e-014
rhumerus 50.305 -8.96749 -37.38
rradius 24.6065
rwrist -15.0477
rhand -40.2926 -10.1307
rfingers 7.12502
rthumb -13.2498 -39.6896
lclavicle 6.36111e-015 -2.70347e-014
lhumerus -7.74215 -30.5883 87.8956
lradius 52.5458
lwrist 33.0563
lhand -13.2995 -16.382
lfingers 7.12502
lthumb 12.8045 13.2053
rfemur -66.8221 -15.6823 23.346
rtibia 61.4437
rfoot -15.5643 -3.94514
rtoes 5.42888
lfemur -61.4378 -5.1972 -28.2683
ltibia 45.9001
lfoot -3.48879 -7.38475
ltoes -18.3954
161
root 22.201 16.4774 -4.9798 551.77 -114.485 -162.987
lowerback 72.6655 -0.523026 10.4118
upperback 17.4733 3.53956 2.91677
thorax -0.664707 1.03812 -2.11088
lowerneck -6.7014 -5.82792 1.92824
upperneck -21.1589 -8.42254 2.00386
head -5.32267 -4.85759 0.566324
rclavicle 1.01778e-013 2.38542e-014
rhumerus 50.0814 -8.15743 -36.5532
rradius 24.9374
rwrist -15.4766
rhand -40.1076 -9.69469
rfingers 7.12502
rthumb -13.0715 -39.2651
lclavicle 1.01778e-013 2.38542e-014
lhumerus -7.69795 -30.6027 88.078
lradius 52.4467
lwrist 32.9621
lhand -13.2936 -16.3248
lfingers 7.12502
lthumb 12.8102 13.2621
rfemur -66.6313 -15.8255 23.3864
rtibia 61.388
rfoot -15.6019 -4.01701
rtoes 5.60112
lfemur -61.2576 -5.29263 -28.2108
ltibia 45.791
lfoot -3.41811 -7.51131
ltoes -18.3292
